<svg width="16" height="19" viewBox="0 0 16 19" fill="none" xmlns="http://www.w3.org/2000/svg">
<path d="M2.63244 17.3597C3.43854 18.035 4.39321 18.5097 5.41819 18.7448C5.51627 18.7769 5.58227 18.6486 5.51627 18.5844C3.32085 16.4898 4.52719 14.2229 5.41819 13.2008C6.05344 12.4711 6.95819 11.2694 6.89219 9.65789C6.89219 9.49656 7.05719 9.36731 7.18735 9.46448C8.4331 10.1089 9.28468 11.527 9.51385 12.6866C9.87502 12.3327 10.0061 11.7846 10.0061 11.3015C10.0061 11.1401 10.2023 11.0109 10.3664 11.1401C11.5461 12.2035 13.5774 15.8124 10.3004 18.6476C10.2353 18.7127 10.3004 18.842 10.3664 18.8099C11.36 18.5494 12.2945 18.1007 13.1191 17.4881C18.4605 13.3631 14.9864 6.04806 12.7249 3.63173C12.4307 3.34114 11.9064 3.53456 11.9064 3.95348C11.8734 4.82431 11.6112 5.79048 10.9237 6.43489C10.3994 4.24406 8.65219 1.75531 6.1616 0.530643C5.83435 0.369309 5.4411 0.626893 5.4741 0.981643C5.53827 3.97914 3.58302 5.88764 1.87894 8.36906C0.371019 10.592 -0.611647 14.6849 2.63244 17.3597Z" fill="white"/>
</svg>
