<svg width="22" height="21" viewBox="0 0 22 21" fill="none" xmlns="http://www.w3.org/2000/svg">
<path d="M20.8997 0.5H0V2.85294H2.52997L6.14012 13.4706C6.61202 14.86 7.8594 15.7941 9.24098 15.7941H18.6998V13.4412H9.24098C8.78009 13.4412 8.3643 13.1294 8.207 12.6671L7.6702 11.0882H17.8704C18.8494 11.0882 19.7184 10.3847 19.9856 9.38118L21.9579 2C22.0525 1.64471 21.9854 1.26353 21.7786 0.968235C21.5696 0.672941 21.244 0.5 20.8997 0.5ZM17.8704 8.73529H6.87051L4.87074 2.85294H19.4423L17.8704 8.73529Z" fill="#949494"/>
<path d="M9.34988 20.5C10.2611 20.5 10.9999 19.7099 10.9999 18.7353C10.9999 17.7607 10.2611 16.9706 9.34988 16.9706C8.43862 16.9706 7.6999 17.7607 7.6999 18.7353C7.6999 19.7099 8.43862 20.5 9.34988 20.5Z" fill="#949494"/>
<path d="M15.9498 20.5C16.8611 20.5 17.5998 19.7099 17.5998 18.7353C17.5998 17.7607 16.8611 16.9706 15.9498 16.9706C15.0385 16.9706 14.2998 17.7607 14.2998 18.7353C14.2998 19.7099 15.0385 20.5 15.9498 20.5Z" fill="#949494"/>
</svg>
