<svg width="25" height="25" viewBox="0 0 25 25" fill="none" xmlns="http://www.w3.org/2000/svg">
<path d="M12.3003 2.5C6.87929 2.5 2.30029 7.079 2.30029 12.5C2.30029 15.689 3.89229 18.578 6.30029 20.424V20.5H6.40229C8.07029 21.745 10.1133 22.5 12.3003 22.5C14.4873 22.5 16.5303 21.745 18.1983 20.5H18.3003V20.424C20.7083 18.578 22.3003 15.69 22.3003 12.5C22.3003 7.079 17.7213 2.5 12.3003 2.5ZM8.37429 19.427C8.67129 18.082 9.86829 17.073 11.3003 17.073H13.3003C14.7323 17.073 15.9293 18.083 16.2263 19.427C15.0583 20.104 13.7163 20.5 12.3003 20.5C10.8843 20.5 9.54229 20.104 8.37429 19.427ZM17.9103 18.141C17.1533 16.341 15.3723 15.073 13.3003 15.073H11.3003C9.22829 15.073 7.44629 16.342 6.69029 18.141C5.22329 16.682 4.30029 14.676 4.30029 12.5C4.30029 8.163 7.96329 4.5 12.3003 4.5C16.6373 4.5 20.3003 8.163 20.3003 12.5C20.3003 14.676 19.3773 16.682 17.9103 18.141Z" fill="#949494"/>
<path d="M12.3003 6.5C10.0203 6.5 8.30029 8.22 8.30029 10.5C8.30029 12.78 10.0203 14.5 12.3003 14.5C14.5803 14.5 16.3003 12.78 16.3003 10.5C16.3003 8.22 14.5803 6.5 12.3003 6.5ZM12.3003 12.5C11.1223 12.5 10.3003 11.678 10.3003 10.5C10.3003 9.322 11.1223 8.5 12.3003 8.5C13.4783 8.5 14.3003 9.322 14.3003 10.5C14.3003 11.678 13.4783 12.5 12.3003 12.5Z" fill="#949494"/>
</svg>
