<svg width="25" height="25" viewBox="0 0 25 25" fill="none" xmlns="http://www.w3.org/2000/svg">
<path d="M14.0382 1.33959C13.6709 1.00498 13.1943 0.819824 12.7002 0.819824C12.2061 0.819824 11.7295 1.00498 11.3622 1.33959L0.700195 11.0532V21.5806C0.700195 22.4397 1.03734 23.2636 1.63745 23.8711C2.23757 24.4785 3.0515 24.8198 3.9002 24.8198H21.5002C22.3489 24.8198 23.1628 24.4785 23.7629 23.8711C24.3631 23.2636 24.7002 22.4397 24.7002 21.5806V11.0532L14.0382 1.33959ZM15.7002 22.7923H9.7002V17.7047C9.7002 16.8993 10.0163 16.1269 10.5789 15.5574C11.1415 14.9879 11.9045 14.6679 12.7002 14.6679C13.4958 14.6679 14.2589 14.9879 14.8215 15.5574C15.3841 16.1269 15.7002 16.8993 15.7002 17.7047V22.7923ZM22.7002 21.5776C22.7002 21.8997 22.5738 22.2087 22.3487 22.4365C22.1237 22.6643 21.8185 22.7923 21.5002 22.7923H17.7002V17.7047C17.7002 16.3624 17.1734 15.075 16.2357 14.1258C15.298 13.1767 14.0263 12.6434 12.7002 12.6434C11.3741 12.6434 10.1023 13.1767 9.16466 14.1258C8.22698 15.075 7.7002 16.3624 7.7002 17.7047V22.7923H3.9002C3.58194 22.7923 3.27671 22.6643 3.05167 22.4365C2.82662 22.2087 2.7002 21.8997 2.7002 21.5776V11.9541L12.7002 2.8438L22.7002 11.9541V21.5776Z" fill="#949494"/>
</svg>
