<svg width="22" height="22" viewBox="0 0 22 22" fill="none" xmlns="http://www.w3.org/2000/svg">
<path d="M10.9997 1.83334C5.94517 1.83334 1.83301 5.94551 1.83301 11C1.83301 16.0545 5.94517 20.1667 10.9997 20.1667C12.3435 20.1667 13.7139 19.8266 15.0715 19.1547L14.2603 17.5111C13.1566 18.0565 12.0593 18.3333 10.9997 18.3333C6.95626 18.3333 3.66634 15.0434 3.66634 11C3.66634 6.95659 6.95626 3.66668 10.9997 3.66668C15.0431 3.66668 18.333 6.95659 18.333 11V11.9167C18.333 12.551 18.0461 13.75 16.958 13.75C15.6783 13.75 15.5885 12.0826 15.583 11.9167V7.33334H13.7497V7.35626C12.9815 6.77509 12.0355 6.41668 10.9997 6.41668C8.47242 6.41668 6.41634 8.47276 6.41634 11C6.41634 13.5273 8.47242 15.5833 10.9997 15.5833C12.3288 15.5833 13.5187 15.0049 14.3565 14.0974C14.8368 14.9133 15.6472 15.5833 16.958 15.5833C19.0416 15.5833 20.1663 13.6941 20.1663 11.9167V11C20.1663 5.94551 16.0542 1.83334 10.9997 1.83334ZM10.9997 13.75C9.48351 13.75 8.24967 12.5162 8.24967 11C8.24967 9.48384 9.48351 8.25001 10.9997 8.25001C12.5158 8.25001 13.7497 9.48384 13.7497 11C13.7497 12.5162 12.5158 13.75 10.9997 13.75Z" fill="#212121"/>
</svg>
