<svg width="21" height="21" viewBox="0 0 21 21" fill="none" xmlns="http://www.w3.org/2000/svg">
<path d="M13.9857 18.681C13.9898 18.681 14.0048 18.681 14.009 18.681C14.449 18.681 14.8648 18.5077 15.1798 18.1927L17.4398 15.9327C17.7657 15.6068 17.7657 15.0802 17.4398 14.7543L14.1065 11.421C13.7807 11.0952 13.254 11.0952 12.9282 11.421L11.5998 12.7493C10.984 12.566 9.83485 12.1493 9.10652 11.421C8.37818 10.6927 7.96151 9.5435 7.77818 8.92767L9.10652 7.59933C9.43235 7.2735 9.43235 6.74683 9.10652 6.421L5.77318 3.08767C5.46068 2.77517 4.90735 2.77517 4.59485 3.08767L2.33568 5.34767C2.01902 5.66433 1.84068 6.09933 1.84735 6.5435C1.86652 7.73017 2.18068 11.8518 5.42902 15.1002C8.67735 18.3485 12.799 18.6618 13.9857 18.681ZM5.18485 4.85517L7.33985 7.01017L6.26235 8.08767C6.06318 8.286 5.97818 8.57267 6.03652 8.84767C6.05652 8.9435 6.54568 11.216 7.92902 12.5993C9.31235 13.9827 11.5848 14.4718 11.6807 14.4918C11.9582 14.5502 12.2423 14.4652 12.4407 14.266L13.5182 13.1885L15.6732 15.3435L14.0015 17.0143C12.9615 16.9968 9.40318 16.7177 6.60735 13.921C3.80235 11.116 3.53068 7.54517 3.51402 6.526L5.18485 4.85517ZM16.8465 9.51433H18.5132C18.5132 5.23933 15.2857 2.01517 11.0048 2.01517V3.68183C14.3898 3.68183 16.8465 6.13433 16.8465 9.51433Z" fill="#212121"/>
<path d="M11.0132 7.01516C12.7657 7.01516 13.5132 7.76266 13.5132 9.51516H15.1799C15.1799 6.82766 13.7007 5.3485 11.0132 5.3485V7.01516Z" fill="#212121"/>
</svg>
