<svg width="23" height="23" viewBox="0 0 23 23" fill="none" xmlns="http://www.w3.org/2000/svg">
<path d="M9.34749 17.3485C11.0397 17.3485 12.5952 16.7664 13.8364 15.8012L17.8661 19.8308L19.1622 18.5347L15.1326 14.505C16.0987 13.2629 16.6808 11.7073 16.6808 10.0152C16.6808 5.97174 13.3909 2.68182 9.34749 2.68182C5.30408 2.68182 2.01416 5.97174 2.01416 10.0152C2.01416 14.0586 5.30408 17.3485 9.34749 17.3485ZM9.34749 4.51516C12.3807 4.51516 14.8475 6.98191 14.8475 10.0152C14.8475 13.0484 12.3807 15.5152 9.34749 15.5152C6.31424 15.5152 3.84749 13.0484 3.84749 10.0152C3.84749 6.98191 6.31424 4.51516 9.34749 4.51516Z" fill="#B3B3B3"/>
</svg>
