<svg width="70" height="60" viewBox="0 0 70 60" fill="none" xmlns="http://www.w3.org/2000/svg">
<path d="M66.4992 0H0V6.99991H8.0499L19.5368 38.587C21.0382 42.7205 25.0072 45.4994 29.4031 45.4994H59.4992V38.4995H29.4031C27.9366 38.4995 26.6137 37.572 26.1132 36.1965L24.4052 31.4996H56.8603C59.9752 31.4996 62.7402 29.4066 63.5907 26.4212L69.8661 4.46244C70.1671 3.40546 69.9536 2.27147 69.2956 1.39298C68.6306 0.514493 67.5947 0 66.4992 0ZM56.8603 24.4997H21.8607L15.4978 6.99991H61.8617L56.8603 24.4997Z" fill="#C9C9C9" fill-opacity="0.6"/>
<path d="M29.7496 59.4992C32.6491 59.4992 34.9996 57.1488 34.9996 54.2493C34.9996 51.3499 32.6491 48.9994 29.7496 48.9994C26.8502 48.9994 24.4997 51.3499 24.4997 54.2493C24.4997 57.1488 26.8502 59.4992 29.7496 59.4992Z" fill="#C9C9C9" fill-opacity="0.6"/>
<path d="M50.7494 59.4992C53.6488 59.4992 55.9993 57.1488 55.9993 54.2493C55.9993 51.3499 53.6488 48.9994 50.7494 48.9994C47.8499 48.9994 45.4994 51.3499 45.4994 54.2493C45.4994 57.1488 47.8499 59.4992 50.7494 59.4992Z" fill="#C9C9C9" fill-opacity="0.6"/>
</svg>
