<svg width="18" height="18" viewBox="0 0 18 18" fill="none" xmlns="http://www.w3.org/2000/svg">
<path d="M12.8065 17.3328C12.8106 17.3328 12.8256 17.3328 12.8298 17.3328C13.2698 17.3328 13.6856 17.1595 14.0007 16.8445L16.2607 14.5845C16.5865 14.2587 16.5865 13.732 16.2607 13.4062L12.9273 10.0728C12.6015 9.74699 12.0748 9.74699 11.749 10.0728L10.4206 11.4012C9.80482 11.2178 8.65565 10.8012 7.92732 10.0728C7.19898 9.34449 6.78232 8.19533 6.59898 7.57949L7.92732 6.25116C8.25315 5.92533 8.25315 5.39866 7.92732 5.07283L4.59398 1.73949C4.28148 1.42699 3.72815 1.42699 3.41565 1.73949L1.15648 3.99949C0.839816 4.31616 0.661483 4.75116 0.668149 5.19533C0.687316 6.38199 1.00148 10.5037 4.24982 13.752C7.49815 17.0003 11.6198 17.3137 12.8065 17.3328ZM4.00565 3.50699L6.16065 5.66199L5.08315 6.73949C4.88398 6.93783 4.79898 7.22449 4.85732 7.49949C4.87732 7.59533 5.36648 9.86783 6.74982 11.2512C8.13315 12.6345 10.4057 13.1237 10.5015 13.1437C10.779 13.202 11.0631 13.117 11.2615 12.9178L12.339 11.8403L14.494 13.9953L12.8223 15.6662C11.7823 15.6487 8.22398 15.3695 5.42815 12.5728C2.62315 9.76783 2.35148 6.19699 2.33482 5.17783L4.00565 3.50699ZM15.6673 8.16616H17.334C17.334 3.89116 14.1065 0.666992 9.82565 0.666992V2.33366C13.2106 2.33366 15.6673 4.78616 15.6673 8.16616Z" fill="#212121"/>
</svg>
