<svg width="24" height="24" viewBox="0 0 24 24" fill="none" xmlns="http://www.w3.org/2000/svg">
<path d="M3.60005 5.33336H6.00005V18.6667H3.60005V5.33336ZM14.4001 5.33336H15.6001V18.6667H14.4001V5.33336ZM9.60005 5.33336H13.2001V18.6667H9.60005V5.33336ZM7.20005 5.33336H8.40005V18.6667H7.20005V5.33336ZM16.8001 5.33336H20.4001V18.6667H16.8001V5.33336Z" fill="#024702"/>
<path d="M2.4 2.66667H7.2V0H2.4C1.0764 0 0 1.196 0 2.66667V8H2.4V2.66667ZM2.4 24H7.2V21.3333H2.4V16H0V21.3333C0 22.804 1.0764 24 2.4 24ZM21.6 0H16.8V2.66667H21.6V8H24V2.66667C24 1.196 22.9236 0 21.6 0ZM21.6 21.3333H16.8V24H21.6C22.9236 24 24 22.804 24 21.3333V16H21.6V21.3333Z" fill="#024702"/>
</svg>
