<svg width="15" height="15" viewBox="0 0 15 15" fill="none" xmlns="http://www.w3.org/2000/svg">
<path fill-rule="evenodd" clip-rule="evenodd" d="M4.53125 2.34375C4.53125 1.48081 5.2308 0.78125 6.09375 0.78125H8.90625C9.76919 0.78125 10.4688 1.48081 10.4688 2.34375V2.65625H13.5938C13.9389 2.65625 14.2188 2.93607 14.2188 3.28125C14.2188 3.62643 13.9389 3.90625 13.5938 3.90625H12.8125V11.7188C12.8125 13.0995 11.6932 14.2188 10.3125 14.2188H4.6875C3.30679 14.2188 2.1875 13.0995 2.1875 11.7188V3.90625H1.40625C1.06107 3.90625 0.78125 3.62643 0.78125 3.28125C0.78125 2.93607 1.06107 2.65625 1.40625 2.65625H4.53125V2.34375ZM5.78125 2.65625H9.21875V2.34375C9.21875 2.17116 9.07884 2.03125 8.90625 2.03125H6.09375C5.92116 2.03125 5.78125 2.17116 5.78125 2.34375V2.65625ZM3.4375 3.90625V11.7188C3.4375 12.4091 3.99714 12.9688 4.6875 12.9688H10.3125C11.0029 12.9688 11.5625 12.4091 11.5625 11.7188V3.90625H3.4375ZM7.5 5C7.84518 5 8.125 5.27982 8.125 5.625L8.125 11.25C8.125 11.5952 7.84518 11.875 7.5 11.875C7.15482 11.875 6.875 11.5952 6.875 11.25L6.875 5.625C6.875 5.27982 7.15482 5 7.5 5Z" fill="#212121"/>
</svg>
