<svg width="18" height="17" viewBox="0 0 18 17" fill="none" xmlns="http://www.w3.org/2000/svg">
<path d="M2 15.5H3.2615L13.498 5.2635L12.2365 4.002L2 14.2385V15.5ZM0.5 17V13.6155L13.6905 0.43075C13.8417 0.293416 14.0086 0.187333 14.1913 0.1125C14.3741 0.0375 14.5658 0 14.7663 0C14.9668 0 15.1609 0.0355838 15.3488 0.10675C15.5368 0.177917 15.7032 0.291083 15.848 0.446249L17.0693 1.68275C17.2244 1.82758 17.335 1.99425 17.401 2.18275C17.467 2.37125 17.5 2.55975 17.5 2.74825C17.5 2.94942 17.4657 3.14133 17.397 3.324C17.3283 3.50683 17.2191 3.67383 17.0693 3.825L3.8845 17H0.5ZM12.8562 4.64375L12.2365 4.002L13.498 5.2635L12.8562 4.64375Z" fill="#212121"/>
</svg>
