<svg width="22" height="23" viewBox="0 0 22 23" fill="none" xmlns="http://www.w3.org/2000/svg">
<path d="M10.9997 2.68213C6.03042 2.68213 1.83301 6.87955 1.83301 11.8488C1.83301 14.772 3.29234 17.4203 5.49967 19.1125V19.1821H5.59317C7.12217 20.3234 8.99492 21.0155 10.9997 21.0155C13.0044 21.0155 14.8772 20.3234 16.4062 19.1821H16.4997V19.1125C18.707 17.4203 20.1663 14.773 20.1663 11.8488C20.1663 6.87955 15.9689 2.68213 10.9997 2.68213ZM7.40084 18.1985C7.67309 16.9656 8.77034 16.0407 10.083 16.0407H11.9163C13.229 16.0407 14.3263 16.9665 14.5985 18.1985C13.5278 18.8191 12.2977 19.1821 10.9997 19.1821C9.70167 19.1821 8.47151 18.8191 7.40084 18.1985ZM16.1422 17.0197C15.4483 15.3697 13.8157 14.2074 11.9163 14.2074H10.083C8.18367 14.2074 6.55017 15.3706 5.85717 17.0197C4.51242 15.6823 3.66634 13.8435 3.66634 11.8488C3.66634 7.87321 7.02409 4.51546 10.9997 4.51546C14.9753 4.51546 18.333 7.87321 18.333 11.8488C18.333 13.8435 17.4869 15.6823 16.1422 17.0197Z" fill="#212121"/>
<path d="M10.9997 6.34863C8.90967 6.34863 7.33301 7.9253 7.33301 10.0153C7.33301 12.1053 8.90967 13.682 10.9997 13.682C13.0897 13.682 14.6663 12.1053 14.6663 10.0153C14.6663 7.9253 13.0897 6.34863 10.9997 6.34863ZM10.9997 11.8486C9.91984 11.8486 9.16634 11.0951 9.16634 10.0153C9.16634 8.93547 9.91984 8.18197 10.9997 8.18197C12.0795 8.18197 12.833 8.93547 12.833 10.0153C12.833 11.0951 12.0795 11.8486 10.9997 11.8486Z" fill="#212121"/>
</svg>
