<svg width="23" height="24" viewBox="0 0 23 24" fill="none" xmlns="http://www.w3.org/2000/svg">
<path d="M0.180664 23.3486L1.72708 17.4424C0.772829 15.7136 0.271414 13.7538 0.272331 11.7442C0.275081 5.46134 5.16549 0.348633 11.1742 0.348633C14.0901 0.349591 16.8273 1.53697 18.8861 3.6913C20.944 5.84563 22.077 8.70913 22.0761 11.7547C22.0734 18.0385 17.183 23.1512 11.1742 23.1512C9.35006 23.1503 7.55248 22.6721 5.96023 21.7635L0.180664 23.3486ZM6.2279 19.7003C7.76423 20.6538 9.23089 21.225 11.1706 21.2259C16.1645 21.2259 20.2327 16.9767 20.2355 11.7528C20.2373 6.51838 16.1884 2.27488 11.1779 2.27297C6.18023 2.27297 2.11483 6.52222 2.11299 11.7451C2.11208 13.8774 2.70974 15.474 3.71349 17.1444L2.79774 20.6404L6.2279 19.7003ZM16.666 14.4639C16.5981 14.3451 16.4166 14.2742 16.1435 14.1314C15.8712 13.9886 14.532 13.2995 14.2817 13.2047C14.0324 13.1098 13.8509 13.0619 13.6685 13.3475C13.487 13.6321 12.9645 14.2742 12.8059 14.4639C12.6473 14.6537 12.4878 14.6776 12.2156 14.5348C11.9433 14.392 11.0651 14.0921 10.0247 13.1213C9.21531 12.3661 8.66806 11.4337 8.50948 11.1481C8.35089 10.8635 8.49298 10.7092 8.62864 10.5673C8.75148 10.4399 8.90089 10.2348 9.03748 10.068C9.17589 9.90322 9.22081 9.78438 9.31248 9.59367C9.40323 9.40392 9.35831 9.23717 9.28956 9.09438C9.22081 8.95255 8.67631 7.55051 8.44989 6.9803C8.22806 6.42542 8.00348 6.50017 7.83665 6.49155L7.31415 6.48197C7.13265 6.48197 6.83748 6.55288 6.58815 6.83847C6.33882 7.12405 5.63482 7.81213 5.63482 9.21417C5.63482 10.6162 6.61107 11.9703 6.74673 12.1601C6.88332 12.3498 8.66714 15.2268 11.3997 16.4601C12.0496 16.7534 12.5575 16.9288 12.9526 17.06C13.6052 17.2766 14.1992 17.246 14.6685 17.1731C15.192 17.0917 16.28 16.4841 16.5074 15.819C16.7347 15.153 16.7347 14.5828 16.666 14.4639Z" fill="#25D366"/>
</svg>
