<svg width="23" height="24" viewBox="0 0 23 24" fill="none" xmlns="http://www.w3.org/2000/svg">
<g clip-path="url(#clip0_1283_3052)">
<path d="M11.1807 23.3486C17.2558 23.3486 22.1807 18.1999 22.1807 11.8486C22.1807 5.49736 17.2558 0.348633 11.1807 0.348633C5.10553 0.348633 0.180664 5.49736 0.180664 11.8486C0.180664 18.1999 5.10553 23.3486 11.1807 23.3486Z" fill="url(#paint0_linear_1283_3052)"/>
<path fill-rule="evenodd" clip-rule="evenodd" d="M5.16009 11.7271C8.36682 10.2665 10.5051 9.30353 11.575 8.83829C14.6299 7.50993 15.2646 7.27919 15.6784 7.27157C15.7694 7.26989 15.9728 7.29347 16.1046 7.40527C16.2159 7.49967 16.2465 7.6272 16.2612 7.7167C16.2758 7.80621 16.2941 8.0101 16.2796 8.16942C16.114 9.98784 15.3977 14.4007 15.0333 16.4373C14.8791 17.2991 14.5755 17.5881 14.2816 17.6163C13.6428 17.6778 13.1577 17.175 12.539 16.751C11.5709 16.0875 11.0239 15.6745 10.0842 15.0271C8.99813 14.2789 9.70216 13.8676 10.3211 13.1956C10.4831 13.0197 13.2976 10.3433 13.3521 10.1005C13.3589 10.0701 13.3652 9.95694 13.3009 9.89717C13.2366 9.8374 13.1416 9.85784 13.0731 9.8741C12.976 9.89714 11.4294 10.9659 8.43328 13.0803C7.99427 13.3954 7.59664 13.549 7.24037 13.5409C6.84761 13.5321 6.09211 13.3088 5.53047 13.1179C4.84159 12.8838 4.29409 12.76 4.34176 12.3624C4.36659 12.1554 4.63937 11.9436 5.16009 11.7271Z" fill="white"/>
</g>
<defs>
<linearGradient id="paint0_linear_1283_3052" x1="11.1807" y1="0.348633" x2="11.1807" y2="23.1781" gradientUnits="userSpaceOnUse">
<stop stop-color="#2AABEE"/>
<stop offset="1" stop-color="#229ED9"/>
</linearGradient>
<clipPath id="clip0_1283_3052">
<rect width="22" height="23" fill="white" transform="translate(0.180664 0.348633)"/>
</clipPath>
</defs>
</svg>
