<svg width="20" height="17" viewBox="0 0 20 17" fill="none" xmlns="http://www.w3.org/2000/svg">
<path d="M18.2497 0.515137H0.833008V2.34847H2.94134L5.94984 10.6214C6.34309 11.704 7.38259 12.4318 8.53392 12.4318H16.4163V10.5985H8.53392C8.14984 10.5985 7.80334 10.3556 7.67226 9.9953L7.22492 8.76514H15.7252C16.541 8.76514 17.2652 8.21697 17.4879 7.43505L19.1315 1.68389C19.2103 1.40705 19.1544 1.11005 18.9821 0.87997C18.8079 0.649887 18.5366 0.515137 18.2497 0.515137ZM15.7252 6.9318H6.55851L4.89201 2.34847H17.0351L15.7252 6.9318Z" fill="#212121"/>
<path d="M8.62467 16.0985C9.38407 16.0985 9.99967 15.4829 9.99967 14.7235C9.99967 13.9641 9.38407 13.3485 8.62467 13.3485C7.86528 13.3485 7.24967 13.9641 7.24967 14.7235C7.24967 15.4829 7.86528 16.0985 8.62467 16.0985Z" fill="#212121"/>
<path d="M14.1247 16.0985C14.8841 16.0985 15.4997 15.4829 15.4997 14.7235C15.4997 13.9641 14.8841 13.3485 14.1247 13.3485C13.3653 13.3485 12.7497 13.9641 12.7497 14.7235C12.7497 15.4829 13.3653 16.0985 14.1247 16.0985Z" fill="#212121"/>
</svg>
