<svg width="35" height="22" viewBox="0 0 35 22" fill="none" xmlns="http://www.w3.org/2000/svg">
<path d="M18.06 7.98389C17.9083 7.98855 17.7625 8.05155 17.6552 8.16122L14.5775 11.2296L12.6817 9.33955C12.1508 8.78655 11.2933 9.64055 11.8475 10.1702L14.161 12.4779C14.3908 12.7077 14.7642 12.7077 14.9952 12.4779L18.4893 8.99305C18.8743 8.61972 18.5908 7.98389 18.0612 7.98389H18.06ZM0.583333 12.6506H4.08333C4.4065 12.6506 4.66667 12.9107 4.66667 13.2339C4.66667 13.5571 4.4065 13.8172 4.08333 13.8172H0.583333C0.260167 13.8172 0 13.5571 0 13.2339C0 12.9107 0.260167 12.6506 0.583333 12.6506ZM0.583333 7.98389H4.08333C4.4065 7.98389 4.66667 8.24405 4.66667 8.56722C4.66667 8.89039 4.4065 9.15055 4.08333 9.15055H0.583333C0.260167 9.15055 0 8.89039 0 8.56722C0 8.24405 0.260167 7.98389 0.583333 7.98389ZM0.583333 3.31722H4.08333C4.4065 3.31722 4.66667 3.57739 4.66667 3.90055C4.66667 4.22372 4.4065 4.48389 4.08333 4.48389H0.583333C0.260167 4.48389 0 4.22372 0 3.90055C0 3.57739 0.260167 3.31722 0.583333 3.31722ZM28.5833 16.1506C26.9792 16.1506 25.6667 17.4631 25.6667 19.0672C25.6667 20.6714 26.9792 21.9839 28.5833 21.9839C30.1875 21.9839 31.5 20.6714 31.5 19.0672C31.5 17.4631 30.1875 16.1506 28.5833 16.1506ZM28.5833 17.3172C29.5563 17.3172 30.3333 18.0942 30.3333 19.0672C30.3333 20.0402 29.5563 20.8172 28.5833 20.8172C27.6103 20.8172 26.8333 20.0402 26.8333 19.0672C26.8333 18.0942 27.6103 17.3172 28.5833 17.3172ZM13.4167 16.1506C11.8125 16.1506 10.5 17.4631 10.5 19.0672C10.5 20.6714 11.8125 21.9839 13.4167 21.9839C15.0208 21.9839 16.3333 20.6714 16.3333 19.0672C16.3333 17.4631 15.0208 16.1506 13.4167 16.1506ZM13.4167 17.3172C14.3897 17.3172 15.1667 18.0942 15.1667 19.0672C15.1667 20.0402 14.3897 20.8172 13.4167 20.8172C12.4437 20.8172 11.6667 20.0402 11.6667 19.0672C11.6667 18.0942 12.4437 17.3172 13.4167 17.3172ZM7.58333 0.983887C6.62433 0.983887 5.83333 1.77489 5.83333 2.73389V15.5672C5.83333 16.5262 6.62433 17.3172 7.58333 17.3172H9.91667C10.7053 17.3289 10.7053 16.1389 9.91667 16.1506H7.58333C7.24967 16.1506 7 15.9009 7 15.5672V2.73389C7 2.40022 7.24967 2.15055 7.58333 2.15055H22.75C23.0837 2.15055 23.3333 2.40022 23.3333 2.73389V16.1506H16.9167C16.1467 16.1506 16.1607 17.3289 16.9167 17.3172H25.0833C25.8533 17.3172 25.8463 16.1506 25.0833 16.1506H24.5V5.65055H29.4315L33.8333 12.5292V15.5672C33.8333 15.9009 33.5837 16.1506 33.25 16.1506H32.0833C31.3203 16.1506 31.3203 17.3172 32.0833 17.3172H33.25C34.209 17.3172 35 16.5262 35 15.5672V12.3589C35 12.2481 34.9685 12.1372 34.909 12.0439L30.2423 4.75222C30.135 4.58539 29.9507 4.48389 29.75 4.48389H24.5V2.73389C24.5 1.77489 23.709 0.983887 22.75 0.983887H7.58333Z" fill="#212121"/>
</svg>
