<svg width="25" height="28" viewBox="0 0 25 28" fill="none" xmlns="http://www.w3.org/2000/svg">
<path d="M18.1626 11.5351C18.3282 11.3574 18.4183 11.1223 18.414 10.8795C18.4097 10.6366 18.3113 10.4049 18.1396 10.2331C17.9678 10.0613 17.7361 9.96293 17.4932 9.95864C17.2503 9.95436 17.0153 10.0445 16.8376 10.2101L11.2501 15.7976L8.78755 13.3351C8.60983 13.1695 8.37478 13.0794 8.1319 13.0836C7.88902 13.0879 7.65729 13.1863 7.48552 13.3581C7.31376 13.5299 7.21537 13.7616 7.21108 14.0045C7.2068 14.2473 7.29695 14.4824 7.46255 14.6601L10.5876 17.7851C10.7633 17.9607 11.0016 18.0593 11.2501 18.0593C11.4985 18.0593 11.7368 17.9607 11.9126 17.7851L18.1626 11.5351Z" fill="#212121"/>
<path fill-rule="evenodd" clip-rule="evenodd" d="M13.175 0.106747C12.7363 -0.0355825 12.2637 -0.0355825 11.825 0.106747L1.5125 3.4505C1.07304 3.59306 0.690007 3.87109 0.418298 4.24475C0.146588 4.61841 0.000158952 5.0685 0 5.5305V11.8105C0 19.548 4.7125 25.1917 11.7513 27.848C12.2338 28.0292 12.7662 28.0292 13.2487 27.848C20.2863 25.1905 25 19.548 25 11.8105V5.5305C25 4.58175 24.3875 3.743 23.4875 3.4505L13.175 0.106747ZM12.4038 1.88925C12.4663 1.86899 12.5337 1.86899 12.5962 1.88925L22.9087 5.23425C22.9714 5.25454 23.0261 5.29411 23.0649 5.34731C23.1037 5.40051 23.1248 5.46463 23.125 5.5305V11.8105C23.125 18.6367 19.025 23.6642 12.5875 26.093C12.5311 26.1141 12.4689 26.1141 12.4125 26.093C5.975 23.6642 1.875 18.6355 1.875 11.8105V5.5305C1.875 5.3955 1.96125 5.27675 2.09125 5.23425L12.4038 1.88925Z" fill="#212121"/>
</svg>
