<svg width="25" height="26" viewBox="0 0 25 26" fill="none" xmlns="http://www.w3.org/2000/svg">
<path fill-rule="evenodd" clip-rule="evenodd" d="M2.04248 2.45447C1.72962 2.45447 1.47059 2.7135 1.47059 3.02637C1.47059 14.8948 11.0891 24.5133 22.9575 24.5133C23.2704 24.5133 23.5294 24.2543 23.5294 23.9414V19.3793C23.5294 19.0665 23.2704 18.8074 22.9575 18.8074C21.258 18.8074 19.5985 18.5334 18.0602 18.0252L18.0524 18.0226C17.8613 17.9571 17.6325 18.0057 17.4774 18.1607L14.223 21.4151L13.7464 21.1709C9.91103 19.2059 6.76544 16.0748 4.81199 12.2357L4.56985 11.7598L7.82324 8.50646C7.98596 8.34367 8.03316 8.12418 7.96971 7.91756C7.46294 6.38131 7.18956 4.73697 7.18956 3.02637C7.18956 2.7135 6.93051 2.45447 6.61765 2.45447H2.04248ZM0 3.02637C0 1.90133 0.917441 0.983887 2.04248 0.983887H6.61765C7.74272 0.983887 8.66015 1.90133 8.66015 3.02637C8.66015 4.58146 8.9089 6.07227 9.36809 7.46242L9.36978 7.46749L9.3714 7.47256C9.59368 8.17984 9.43125 8.97808 8.86309 9.54631L6.37044 12.039C8.10963 15.2288 10.7521 17.862 13.946 19.6125L16.4376 17.1208C16.9873 16.5711 17.802 16.384 18.5249 16.63C19.9137 17.0884 21.4164 17.3368 22.9575 17.3368C24.0826 17.3368 25 18.2543 25 19.3793V23.9414C25 25.0665 24.0826 25.9839 22.9575 25.9839C10.2769 25.9839 0 15.707 0 3.02637Z" fill="#212121"/>
</svg>
