<svg width="18" height="18" viewBox="0 0 18 18" fill="none" xmlns="http://www.w3.org/2000/svg">
<path d="M8.16634 15.5C9.85851 15.5 11.4141 14.918 12.6553 13.9527L16.6849 17.9824L17.9811 16.6862L13.9514 12.6565C14.9176 11.4145 15.4997 9.85887 15.4997 8.16671C15.4997 4.12329 12.2098 0.833374 8.16634 0.833374C4.12292 0.833374 0.833008 4.12329 0.833008 8.16671C0.833008 12.2101 4.12292 15.5 8.16634 15.5ZM8.16634 2.66671C11.1996 2.66671 13.6663 5.13346 13.6663 8.16671C13.6663 11.2 11.1996 13.6667 8.16634 13.6667C5.13309 13.6667 2.66634 11.2 2.66634 8.16671C2.66634 5.13346 5.13309 2.66671 8.16634 2.66671Z" fill="#E2E2E2"/>
</svg>
