<svg width="22" height="22" viewBox="0 0 22 22" fill="none" xmlns="http://www.w3.org/2000/svg">
<g clip-path="url(#clip0_1100_49975)">
<path d="M5.76989 7.06459C5.59755 6.89225 5.5013 6.65942 5.5013 6.4165V4.58317C5.5013 4.07717 5.91105 3.6665 6.41797 3.6665C6.92489 3.6665 7.33464 4.07717 7.33464 4.58317V6.037L7.98272 6.68509C8.34114 7.0435 8.34114 7.62284 7.98272 7.98125C7.6243 8.33967 7.04497 8.33967 6.68655 7.98125L5.76989 7.06459ZM0.917969 6.4165C0.917969 2.61325 2.61472 0.916504 6.41797 0.916504C10.2212 0.916504 11.918 2.61325 11.918 6.4165C11.918 10.2198 10.2212 11.9165 6.41797 11.9165C2.61472 11.9165 0.917969 10.2198 0.917969 6.4165ZM2.7513 6.4165C2.7513 9.19217 3.6423 10.0832 6.41797 10.0832C9.19363 10.0832 10.0846 9.19217 10.0846 6.4165C10.0846 3.64084 9.19363 2.74984 6.41797 2.74984C3.6423 2.74984 2.7513 3.64084 2.7513 6.4165ZM21.0846 12.8332C21.0846 14.7013 20.7198 16.3908 20.5997 16.9453C20.5209 17.3111 20.2101 17.6732 19.8416 17.7364C19.6418 17.7713 19.1266 17.8538 18.3346 17.9463V18.3332C18.3346 19.8493 17.1008 21.0832 15.5846 21.0832C14.0685 21.0832 12.8346 19.8493 12.8346 18.3332V18.3112C12.2553 18.3249 11.6439 18.3332 11.0013 18.3332C10.3587 18.3332 9.74822 18.3249 9.16797 18.3103V18.3332C9.16797 19.8493 7.93413 21.0832 6.41797 21.0832C4.9018 21.0832 3.66797 19.8493 3.66797 18.3332V17.9427C3.06939 17.8721 2.63947 17.8088 2.40114 17.7703C2.02622 17.7098 1.72739 17.4248 1.65039 17.0517C1.57705 16.7006 1.32405 15.431 1.13522 13.858C1.07564 13.3557 1.43405 12.8992 1.9373 12.8396C2.44239 12.7837 2.89614 13.1393 2.95572 13.6417C3.07305 14.628 3.21697 15.486 3.32147 16.0525C4.58555 16.2221 7.23013 16.4998 11.0004 16.4998C12.1068 16.4998 13.1096 16.4742 14.0217 16.4357C14.1299 15.9113 14.6671 13.1769 14.6671 10.5415C14.6671 7.64942 13.7916 4.398 13.7825 4.36592C13.6496 3.87734 13.9374 3.37409 14.426 3.24025C14.9127 3.10825 15.4187 3.39517 15.5516 3.88375C15.5773 3.97725 15.977 5.46592 16.2492 7.36434C18.1357 7.47525 19.7747 7.81259 19.8508 7.82817C20.1927 7.90059 20.4641 8.16 20.5511 8.49825C20.5722 8.5835 21.0846 10.6048 21.0846 12.8332ZM7.33464 18.2424C6.6618 18.2085 6.05038 18.1673 5.5013 18.1233V18.3332C5.5013 18.8383 5.91197 19.2498 6.41797 19.2498C6.96155 19.2526 7.3768 18.7778 7.33464 18.2424ZM16.4509 9.21325C16.4821 9.65417 16.5013 10.0997 16.5013 10.5415C16.5013 11.0035 16.4848 11.4637 16.4601 11.9165H19.2201C19.156 10.9357 19.0075 10.0575 18.9002 9.51575C18.3438 9.42042 17.4409 9.28659 16.4509 9.21325ZM16.5013 18.1251C15.9522 18.1691 15.3381 18.2094 14.668 18.2424C14.6258 18.7778 15.042 19.2517 15.5846 19.2489C16.0906 19.2489 16.5013 18.8373 16.5013 18.3323V18.1242V18.1251ZM19.2201 13.7498H16.3015C16.1759 14.8407 16.0191 15.7638 15.9119 16.3293C17.2906 16.2294 18.3126 16.1075 18.9176 16.0241C19.0286 15.4512 19.1606 14.6454 19.2201 13.7508V13.7498Z" fill="black"/>
</g>
<defs>
<clipPath id="clip0_1100_49975">
<rect width="22" height="22" fill="white"/>
</clipPath>
</defs>
</svg>
