<svg width="22" height="22" viewBox="0 0 22 22" fill="none" xmlns="http://www.w3.org/2000/svg">
<path d="M10.9987 1.8335C6.02945 1.8335 1.83203 6.03091 1.83203 11.0002C1.83203 13.9234 3.29136 16.5717 5.4987 18.2638V18.3335H5.5922C7.1212 19.4747 8.99395 20.1668 10.9987 20.1668C13.0034 20.1668 14.8762 19.4747 16.4052 18.3335H16.4987V18.2638C18.706 16.5717 20.1654 13.9243 20.1654 11.0002C20.1654 6.03091 15.9679 1.8335 10.9987 1.8335ZM7.39986 17.3499C7.67211 16.117 8.76936 15.1921 10.082 15.1921H11.9154C13.228 15.1921 14.3253 16.1179 14.5975 17.3499C13.5269 17.9705 12.2967 18.3335 10.9987 18.3335C9.7007 18.3335 8.47053 17.9705 7.39986 17.3499ZM16.1412 16.1711C15.4473 14.5211 13.8147 13.3587 11.9154 13.3587H10.082C8.1827 13.3587 6.5492 14.522 5.8562 16.1711C4.51145 14.8337 3.66536 12.9948 3.66536 11.0002C3.66536 7.02458 7.02311 3.66683 10.9987 3.66683C14.9743 3.66683 18.332 7.02458 18.332 11.0002C18.332 12.9948 17.4859 14.8337 16.1412 16.1711Z" fill="black"/>
<path d="M10.9987 5.5C8.9087 5.5 7.33203 7.07667 7.33203 9.16667C7.33203 11.2567 8.9087 12.8333 10.9987 12.8333C13.0887 12.8333 14.6654 11.2567 14.6654 9.16667C14.6654 7.07667 13.0887 5.5 10.9987 5.5ZM10.9987 11C9.91886 11 9.16536 10.2465 9.16536 9.16667C9.16536 8.08683 9.91886 7.33333 10.9987 7.33333C12.0785 7.33333 12.832 8.08683 12.832 9.16667C12.832 10.2465 12.0785 11 10.9987 11Z" fill="black"/>
</svg>
