<svg width="18" height="18" viewBox="0 0 18 18" fill="none" xmlns="http://www.w3.org/2000/svg">
<path d="M0 2C0 1.17157 0.636227 0.5 1.42105 0.5H16.5789C17.3638 0.5 18 1.17157 18 2C18 2.82843 17.3638 3.5 16.5789 3.5H1.42105C0.636227 3.5 0 2.82843 0 2Z" fill="#C9C9C9"/>
<path d="M0 9C0 8.17157 0.636227 7.5 1.42105 7.5H16.5789C17.3638 7.5 18 8.17157 18 9C18 9.82843 17.3638 10.5 16.5789 10.5H1.42105C0.636227 10.5 0 9.82843 0 9Z" fill="#C9C9C9"/>
<path d="M0 16C0 15.1716 0.636227 14.5 1.42105 14.5H16.5789C17.3638 14.5 18 15.1716 18 16C18 16.8284 17.3638 17.5 16.5789 17.5H1.42105C0.636227 17.5 0 16.8284 0 16Z" fill="#C9C9C9"/>
</svg>
