<svg width="22" height="22" viewBox="0 0 22 22" fill="none" xmlns="http://www.w3.org/2000/svg">
<path d="M3.74 18.3333H12.7618C12.3026 15.4147 9.74783 13.3558 8.26283 12.3869C6.76317 13.3705 4.20383 15.4394 3.74 18.3333ZM8.26742 14.6502C8.88067 15.1415 9.53425 15.7657 10.0485 16.5H6.47992C7.01067 15.7566 7.678 15.1268 8.26742 14.6502ZM16.5009 5.49908C13.4677 5.49908 11.0009 7.96583 11.0009 10.9991C11.0009 14.0323 13.4677 16.4991 16.5009 16.4991C19.5342 16.4991 22.0009 14.0323 22.0009 10.9991C22.0009 7.96583 19.5342 5.49908 16.5009 5.49908ZM16.5009 14.6657C14.4787 14.6657 12.8342 13.0212 12.8342 10.9991C12.8342 8.97692 14.4787 7.33242 16.5009 7.33242C18.5231 7.33242 20.1676 8.97692 20.1676 10.9991C20.1676 13.0212 18.5231 14.6657 16.5009 14.6657ZM17.4176 10.6113L18.7669 11.9222L17.49 13.2376L15.5842 11.3868V8.24908H17.4176V10.6113ZM16.4377 18.3288C16.467 18.6322 16.5009 18.9328 16.5009 19.2491V21.9991H0V19.2491C0 15.5778 2.05333 12.8214 4.07183 10.9991C2.05333 9.17767 0 6.42125 0 2.75C0 1.23383 1.23383 0 2.75 0H13.7509C14.4852 0 15.1754 0.286 15.6942 0.804833C16.2131 1.32367 16.5 2.01483 16.5 2.75C16.5 3.06625 16.4661 3.36692 16.4367 3.66942C15.7914 3.67492 15.169 3.76842 14.5741 3.93067C14.6327 3.54933 14.6667 3.157 14.6667 2.75C14.6667 2.50525 14.5713 2.27425 14.3981 2.101C14.2257 1.92867 13.9957 1.83333 13.7509 1.83333H2.75C2.244 1.83333 1.83333 2.24492 1.83333 2.75C1.83333 6.20858 4.13233 8.75417 6.061 10.2813L6.9685 11L6.06008 11.7187C4.13142 13.2449 1.83333 15.7905 1.83333 19.2491V20.1658H14.6667V19.2491C14.6667 18.8421 14.6327 18.4488 14.5732 18.0675C15.1681 18.2297 15.7914 18.3233 16.4358 18.3288H16.4377Z" fill="#212121"/>
</svg>
